<mxfile host="Electron" agent="Mozilla/5.0 (Windows NT 10.0; Win64; x64) AppleWebKit/537.36 (KHTML, like Gecko) draw.io/24.7.8 Chrome/128.0.6613.36 Electron/32.0.1 Safari/537.36" version="24.7.8">
  <diagram name="第 1 页" id="m_Eg56ZWt1wnzcJJa5vc">
    <mxGraphModel dx="794" dy="519" grid="1" gridSize="10" guides="1" tooltips="1" connect="1" arrows="1" fold="1" page="1" pageScale="1" pageWidth="413" pageHeight="583" background="#ffffff" math="0" shadow="0">
      <root>
        <mxCell id="0" />
        <mxCell id="1" parent="0" />
        <mxCell id="bE9mK5p7QSLrS4esd1ZM-1" value="" style="group" parent="1" vertex="1" connectable="0">
          <mxGeometry x="10" y="200" width="200" height="40" as="geometry" />
        </mxCell>
        <mxCell id="_oWw80NLND1y0nb7Lqib-1" value="" style="rounded=0;whiteSpace=wrap;html=1;fillColor=none;" parent="bE9mK5p7QSLrS4esd1ZM-1" vertex="1">
          <mxGeometry x="80" width="120" height="40" as="geometry" />
        </mxCell>
        <mxCell id="_oWw80NLND1y0nb7Lqib-3" value="&lt;b&gt;&lt;font style=&quot;font-size: 12px;&quot;&gt;DATA&lt;/font&gt;&lt;/b&gt;&lt;div&gt;&lt;b&gt;&lt;font style=&quot;font-size: 12px;&quot;&gt;(不存数据)&lt;/font&gt;&lt;/b&gt;&lt;/div&gt;" style="rounded=0;whiteSpace=wrap;html=1;strokeColor=default;align=center;verticalAlign=middle;fontFamily=Helvetica;fontSize=12;fontColor=default;fillColor=none;" parent="bE9mK5p7QSLrS4esd1ZM-1" vertex="1">
          <mxGeometry x="80" width="60" height="40" as="geometry" />
        </mxCell>
        <mxCell id="_oWw80NLND1y0nb7Lqib-4" value="" style="rounded=0;whiteSpace=wrap;html=1;strokeColor=default;align=center;verticalAlign=middle;fontFamily=Helvetica;fontSize=12;fontColor=default;fillColor=none;" parent="bE9mK5p7QSLrS4esd1ZM-1" vertex="1">
          <mxGeometry x="140" width="60" height="40" as="geometry" />
        </mxCell>
        <mxCell id="_oWw80NLND1y0nb7Lqib-6" value="" style="endArrow=classic;html=1;rounded=0;fontFamily=Helvetica;fontSize=12;fontColor=default;entryX=0;entryY=0.5;entryDx=0;entryDy=0;" parent="bE9mK5p7QSLrS4esd1ZM-1" target="_oWw80NLND1y0nb7Lqib-3" edge="1">
          <mxGeometry width="50" height="50" relative="1" as="geometry">
            <mxPoint x="40" y="20" as="sourcePoint" />
            <mxPoint x="190" y="50" as="targetPoint" />
          </mxGeometry>
        </mxCell>
        <mxCell id="_oWw80NLND1y0nb7Lqib-7" value="&lt;font style=&quot;font-size: 20px;&quot;&gt;&lt;b&gt;S&lt;/b&gt;&lt;/font&gt;" style="text;html=1;align=center;verticalAlign=middle;whiteSpace=wrap;rounded=0;fontFamily=Helvetica;fontSize=12;fontColor=default;" parent="bE9mK5p7QSLrS4esd1ZM-1" vertex="1">
          <mxGeometry y="5" width="60" height="30" as="geometry" />
        </mxCell>
        <mxCell id="bE9mK5p7QSLrS4esd1ZM-8" value="" style="group" parent="1" vertex="1" connectable="0">
          <mxGeometry x="330" y="200" width="200" height="40" as="geometry" />
        </mxCell>
        <mxCell id="bE9mK5p7QSLrS4esd1ZM-9" value="" style="rounded=0;whiteSpace=wrap;html=1;fillColor=none;" parent="bE9mK5p7QSLrS4esd1ZM-8" vertex="1">
          <mxGeometry x="80" width="120" height="40" as="geometry" />
        </mxCell>
        <mxCell id="bE9mK5p7QSLrS4esd1ZM-10" value="&lt;b&gt;&lt;font style=&quot;font-size: 20px;&quot;&gt;DATA&lt;/font&gt;&lt;/b&gt;" style="rounded=0;whiteSpace=wrap;html=1;strokeColor=default;align=center;verticalAlign=middle;fontFamily=Helvetica;fontSize=12;fontColor=default;fillColor=none;" parent="bE9mK5p7QSLrS4esd1ZM-8" vertex="1">
          <mxGeometry x="80" width="60" height="40" as="geometry" />
        </mxCell>
        <mxCell id="bE9mK5p7QSLrS4esd1ZM-11" value="&lt;font style=&quot;font-size: 20px;&quot;&gt;&lt;b&gt;NULL&lt;/b&gt;&lt;/font&gt;" style="rounded=0;whiteSpace=wrap;html=1;strokeColor=default;align=center;verticalAlign=middle;fontFamily=Helvetica;fontSize=12;fontColor=default;fillColor=none;" parent="bE9mK5p7QSLrS4esd1ZM-8" vertex="1">
          <mxGeometry x="140" width="60" height="40" as="geometry" />
        </mxCell>
        <mxCell id="bE9mK5p7QSLrS4esd1ZM-12" value="" style="endArrow=classic;html=1;rounded=0;fontFamily=Helvetica;fontSize=12;fontColor=default;entryX=0;entryY=0.5;entryDx=0;entryDy=0;dashed=1;dashPattern=1 4;" parent="bE9mK5p7QSLrS4esd1ZM-8" target="bE9mK5p7QSLrS4esd1ZM-10" edge="1">
          <mxGeometry width="50" height="50" relative="1" as="geometry">
            <mxPoint x="40" y="20" as="sourcePoint" />
            <mxPoint x="190" y="50" as="targetPoint" />
          </mxGeometry>
        </mxCell>
        <mxCell id="bE9mK5p7QSLrS4esd1ZM-14" value="" style="endArrow=classic;html=1;rounded=0;" parent="1" edge="1">
          <mxGeometry width="50" height="50" relative="1" as="geometry">
            <mxPoint x="280" y="160" as="sourcePoint" />
            <mxPoint x="280.2222222222222" y="200" as="targetPoint" />
          </mxGeometry>
        </mxCell>
        <mxCell id="bE9mK5p7QSLrS4esd1ZM-18" value="&lt;font style=&quot;font-size: 20px;&quot;&gt;&lt;b&gt;①&lt;/b&gt;&lt;/font&gt;" style="text;html=1;align=center;verticalAlign=middle;whiteSpace=wrap;rounded=0;" parent="1" vertex="1">
          <mxGeometry x="270" y="160" width="60" height="30" as="geometry" />
        </mxCell>
        <mxCell id="bE9mK5p7QSLrS4esd1ZM-19" value="&lt;b style=&quot;forced-color-adjust: none; color: rgb(0, 0, 0); font-family: Helvetica; font-size: 20px; font-style: normal; font-variant-ligatures: normal; font-variant-caps: normal; letter-spacing: normal; orphans: 2; text-align: center; text-indent: 0px; text-transform: none; widows: 2; word-spacing: 0px; -webkit-text-stroke-width: 0px; white-space: normal; text-decoration-thickness: initial; text-decoration-style: initial; text-decoration-color: initial;&quot;&gt;②&lt;/b&gt;" style="text;whiteSpace=wrap;html=1;fillColor=none;labelBackgroundColor=none;" parent="1" vertex="1">
          <mxGeometry x="295" y="250" width="30" height="40" as="geometry" />
        </mxCell>
        <mxCell id="5iolp9YdbZtA_J9DWgvn-1" value="" style="group" parent="1" vertex="1" connectable="0">
          <mxGeometry x="170" y="200" width="200" height="40" as="geometry" />
        </mxCell>
        <mxCell id="5iolp9YdbZtA_J9DWgvn-2" value="" style="rounded=0;whiteSpace=wrap;html=1;fillColor=none;" parent="5iolp9YdbZtA_J9DWgvn-1" vertex="1">
          <mxGeometry x="80" width="120" height="40" as="geometry" />
        </mxCell>
        <mxCell id="5iolp9YdbZtA_J9DWgvn-3" value="&lt;b&gt;&lt;font style=&quot;font-size: 20px;&quot;&gt;DATA&lt;/font&gt;&lt;/b&gt;" style="rounded=0;whiteSpace=wrap;html=1;strokeColor=default;align=center;verticalAlign=middle;fontFamily=Helvetica;fontSize=12;fontColor=default;fillColor=none;" parent="5iolp9YdbZtA_J9DWgvn-1" vertex="1">
          <mxGeometry x="80" width="60" height="40" as="geometry" />
        </mxCell>
        <mxCell id="5iolp9YdbZtA_J9DWgvn-4" value="" style="rounded=0;whiteSpace=wrap;html=1;strokeColor=default;align=center;verticalAlign=middle;fontFamily=Helvetica;fontSize=12;fontColor=default;fillColor=none;" parent="5iolp9YdbZtA_J9DWgvn-1" vertex="1">
          <mxGeometry x="140" width="60" height="40" as="geometry" />
        </mxCell>
        <mxCell id="5iolp9YdbZtA_J9DWgvn-5" value="" style="endArrow=classic;html=1;rounded=0;fontFamily=Helvetica;fontSize=12;fontColor=default;entryX=0;entryY=0.5;entryDx=0;entryDy=0;dashed=1;dashPattern=1 4;" parent="5iolp9YdbZtA_J9DWgvn-1" target="5iolp9YdbZtA_J9DWgvn-3" edge="1">
          <mxGeometry width="50" height="50" relative="1" as="geometry">
            <mxPoint x="40" y="20" as="sourcePoint" />
            <mxPoint x="190" y="50" as="targetPoint" />
          </mxGeometry>
        </mxCell>
        <mxCell id="5iolp9YdbZtA_J9DWgvn-7" value="&lt;b style=&quot;forced-color-adjust: none; color: rgb(0, 0, 0); font-family: Helvetica; font-size: 20px; font-style: normal; font-variant-ligatures: normal; font-variant-caps: normal; letter-spacing: normal; orphans: 2; text-align: center; text-indent: 0px; text-transform: none; widows: 2; word-spacing: 0px; -webkit-text-stroke-width: 0px; white-space: normal; text-decoration-thickness: initial; text-decoration-style: initial; text-decoration-color: initial;&quot;&gt;FirstCell&lt;/b&gt;" style="text;whiteSpace=wrap;html=1;fillColor=none;labelBackgroundColor=none;" parent="1" vertex="1">
          <mxGeometry x="245" y="130" width="95" height="30" as="geometry" />
        </mxCell>
        <mxCell id="5iolp9YdbZtA_J9DWgvn-9" value="" style="curved=1;endArrow=classic;html=1;rounded=0;exitX=0.5;exitY=1;exitDx=0;exitDy=0;entryX=0.5;entryY=1;entryDx=0;entryDy=0;" parent="1" source="_oWw80NLND1y0nb7Lqib-4" target="bE9mK5p7QSLrS4esd1ZM-10" edge="1">
          <mxGeometry width="50" height="50" relative="1" as="geometry">
            <mxPoint x="180" y="320" as="sourcePoint" />
            <mxPoint x="230" y="270" as="targetPoint" />
            <Array as="points">
              <mxPoint x="310" y="320" />
            </Array>
          </mxGeometry>
        </mxCell>
      </root>
    </mxGraphModel>
  </diagram>
</mxfile>
